<?xml version="1.0" standalone="no"?>
<!DOCTYPE svg PUBLIC "-//W3C//DTD SVG 20010904//EN"
 "http://www.w3.org/TR/2001/REC-SVG-20010904/DTD/svg10.dtd">
<svg version="1.0" xmlns="http://www.w3.org/2000/svg"
 width="500.000000pt" height="500.000000pt" viewBox="0 0 500.000000 500.000000"
 preserveAspectRatio="xMidYMid meet">

<g transform="translate(0.000000,500.000000) scale(0.100000,-0.100000)"
fill="#000000" stroke="none">
<path d="M2330 4699 c-279 -16 -518 -80 -788 -210 -204 -98 -321 -176 -504
-336 -224 -195 -383 -403 -518 -677 -174 -353 -247 -731 -220 -1134 29 -440
199 -874 478 -1222 354 -440 859 -727 1422 -806 148 -21 456 -21 600 0 663 95
1232 468 1588 1041 147 237 257 545 297 831 27 186 19 544 -15 722 -76 402
-271 793 -534 1071 -235 247 -409 379 -671 506 -360 175 -705 240 -1135 214z
m-955 -1655 c165 -75 424 -191 575 -259 577 -259 610 -274 610 -283 0 -10 -58
-39 -215 -107 -66 -29 -176 -78 -245 -110 -137 -63 -287 -131 -365 -165 -27
-13 -72 -33 -100 -45 -27 -13 -95 -43 -150 -68 -55 -25 -125 -56 -155 -70
-134 -61 -263 -117 -271 -117 -5 0 -9 300 -9 680 0 537 3 680 13 680 6 0 147
-61 312 -136z m1826 -110 c299 -135 600 -270 669 -301 241 -108 270 -122 270
-131 0 -9 -39 -28 -340 -162 -52 -23 -122 -55 -155 -71 -33 -15 -177 -80 -320
-145 -143 -64 -296 -134 -340 -154 -176 -81 -335 -150 -346 -150 -5 0 -9 299
-9 680 0 553 2 680 13 680 7 0 258 -111 558 -246z"/>
</g>
</svg>
