<?xml version="1.0" standalone="no"?>
<!DOCTYPE svg PUBLIC "-//W3C//DTD SVG 20010904//EN"
 "http://www.w3.org/TR/2001/REC-SVG-20010904/DTD/svg10.dtd">
<svg version="1.0" xmlns="http://www.w3.org/2000/svg"
 width="500.000000pt" height="500.000000pt" viewBox="0 0 500.000000 500.000000"
 preserveAspectRatio="xMidYMid meet">

<g transform="translate(0.000000,500.000000) scale(0.100000,-0.100000)"
fill="#000000" stroke="none">
<path d="M2395 4703 c-654 -27 -1273 -359 -1673 -896 -213 -285 -357 -638
-407 -993 -27 -186 -19 -544 15 -722 76 -402 271 -793 534 -1071 235 -247 409
-379 671 -506 327 -158 586 -217 965 -217 381 1 633 57 958 213 204 98 321
176 504 336 224 195 383 403 518 677 174 353 247 730 221 1133 -16 233 -70
460 -166 694 -222 543 -676 987 -1229 1204 -274 107 -606 161 -911 148z m-25
-2203 c0 -553 -2 -680 -13 -680 -7 0 -258 111 -558 246 -299 135 -600 270
-669 301 -241 108 -270 122 -270 131 0 9 39 28 340 162 52 23 122 55 155 71
33 15 177 80 319 144 142 65 293 133 335 152 42 19 121 55 176 79 55 25 114
51 130 59 17 7 36 14 43 14 9 1 12 -141 12 -679z m1580 0 c0 -537 -3 -680 -12
-680 -7 0 -148 61 -313 136 -165 75 -424 191 -575 259 -577 259 -610 274 -610
283 0 10 58 39 215 107 66 29 176 78 245 110 137 63 287 131 365 165 28 13 73
33 100 45 70 32 269 122 335 151 30 14 93 43 140 64 47 21 91 39 98 39 9 1 12
-141 12 -679z"/>
</g>
</svg>
