<?xml version="1.0" standalone="no"?>
<!DOCTYPE svg PUBLIC "-//W3C//DTD SVG 20010904//EN"
 "http://www.w3.org/TR/2001/REC-SVG-20010904/DTD/svg10.dtd">
<svg version="1.0" xmlns="http://www.w3.org/2000/svg"
 width="500.000000pt" height="500.000000pt" viewBox="0 0 500.000000 500.000000"
 preserveAspectRatio="xMidYMid meet">

<g transform="translate(0.000000,500.000000) scale(0.100000,-0.100000)"
fill="#000000" stroke="none">
<path d="M2330 4700 c-289 -17 -531 -84 -815 -225 -358 -179 -655 -444 -874
-779 -71 -109 -183 -340 -226 -466 -44 -127 -89 -329 -105 -465 -15 -127 -15
-433 0 -550 69 -531 350 -1049 755 -1390 240 -202 477 -334 770 -428 223 -71
410 -99 675 -98 203 0 338 15 507 57 426 104 852 358 1122 668 290 332 447
649 532 1071 27 136 38 504 19 667 -46 411 -222 824 -482 1133 -222 264 -455
451 -738 589 -356 174 -709 241 -1140 216z m912 -1457 l30 -31 0 -705 c0 -500
-4 -711 -12 -726 -29 -56 0 -54 -762 -52 -435 1 -708 6 -720 12 -10 5 -25 21
-34 35 -15 22 -17 93 -15 731 l1 707 26 27 c15 16 36 29 48 31 11 2 333 3 714
2 l694 -1 30 -30z"/>
</g>
</svg>
