<?xml version="1.0" standalone="no"?>
<!DOCTYPE svg PUBLIC "-//W3C//DTD SVG 20010904//EN"
 "http://www.w3.org/TR/2001/REC-SVG-20010904/DTD/svg10.dtd">
<svg version="1.0" xmlns="http://www.w3.org/2000/svg"
 width="500.000000pt" height="500.000000pt" viewBox="0 0 500.000000 500.000000"
 preserveAspectRatio="xMidYMid meet">

<g transform="translate(0.000000,500.000000) scale(0.100000,-0.100000)"
fill="#000000" stroke="none">
<path d="M2335 4690 c-721 -44 -1390 -467 -1753 -1106 -269 -473 -351 -1068
-221 -1594 163 -660 584 -1182 1184 -1470 993 -477 2177 -152 2791 767 425
637 482 1489 144 2171 -116 233 -220 381 -405 571 -325 334 -690 535 -1142
627 -108 22 -364 46 -448 42 -16 0 -84 -4 -150 -8z m-160 -1615 c77 -50 205
-134 285 -187 80 -52 219 -143 310 -203 91 -59 189 -123 218 -143 29 -19 51
-39 50 -44 -3 -9 -215 -151 -786 -526 -129 -85 -237 -151 -240 -147 -7 7 -12
1336 -5 1348 5 9 -8 16 168 -98z m1151 -27 c104 -69 295 -194 424 -279 129
-85 272 -179 318 -208 45 -29 82 -56 82 -61 0 -4 -82 -61 -182 -127 -101 -66
-331 -217 -511 -336 -181 -120 -333 -217 -338 -217 -5 0 -9 278 -9 681 0 557
2 680 13 676 7 -3 98 -61 203 -129z m-2214 -16 c741 -461 838 -522 838 -532 0
-10 -44 -39 -375 -246 -148 -92 -364 -228 -480 -300 -115 -73 -213 -130 -217
-128 -12 8 -10 1344 2 1344 5 0 110 -62 232 -138z"/>
</g>
</svg>
