<?xml version="1.0" standalone="no"?>
<!DOCTYPE svg PUBLIC "-//W3C//DTD SVG 20010904//EN"
 "http://www.w3.org/TR/2001/REC-SVG-20010904/DTD/svg10.dtd">
<svg version="1.0" xmlns="http://www.w3.org/2000/svg"
 width="500.000000pt" height="500.000000pt" viewBox="0 0 500.000000 500.000000"
 preserveAspectRatio="xMidYMid meet">

<g transform="translate(0.000000,500.000000) scale(0.100000,-0.100000)"
fill="#000000" stroke="none">
<path d="M2290 4690 c-660 -64 -1255 -421 -1626 -977 -425 -637 -482 -1489
-144 -2171 116 -233 220 -381 405 -571 325 -334 690 -535 1142 -627 297 -60
686 -49 988 27 566 144 1071 530 1363 1045 269 473 351 1068 221 1594 -163
660 -584 1182 -1184 1470 -211 101 -409 162 -639 195 -135 20 -399 27 -526 15z
m-400 -2191 c0 -557 -2 -680 -13 -676 -13 5 -120 74 -627 408 -129 85 -272
179 -317 208 -46 29 -83 56 -83 61 0 4 82 61 182 127 101 66 331 217 511 336
181 120 333 217 338 217 5 0 9 -278 9 -681z m1106 3 c1 -370 -2 -674 -5 -677
-7 -4 -35 14 -401 254 -107 70 -269 176 -360 236 -261 170 -270 176 -270 185
0 5 120 88 268 185 147 97 375 248 507 335 132 87 244 158 250 156 6 -1 10
-256 11 -674z m1134 -3 c0 -432 -3 -669 -10 -669 -9 0 -137 79 -660 404 -352
220 -410 257 -410 266 0 10 44 39 375 246 149 92 364 228 480 300 115 73 213
130 217 128 5 -3 8 -306 8 -675z"/>
</g>
</svg>
