<?xml version="1.0" standalone="no"?>
<!DOCTYPE svg PUBLIC "-//W3C//DTD SVG 20010904//EN"
 "http://www.w3.org/TR/2001/REC-SVG-20010904/DTD/svg10.dtd">
<svg version="1.0" xmlns="http://www.w3.org/2000/svg"
 width="468.000000pt" height="465.000000pt" viewBox="0 0 468.000000 465.000000"
 preserveAspectRatio="xMidYMid meet">

<g transform="translate(0.000000,465.000000) scale(0.100000,-0.100000)"
fill="#000000" stroke="none">
<path d="M710 4329 c-235 -34 -432 -204 -517 -444 l-28 -80 0 -1580 0 -1580
23 -80 c36 -123 76 -190 172 -285 93 -94 176 -145 290 -177 62 -17 142 -18
1635 -18 1467 0 1574 1 1635 18 187 50 338 174 424 348 75 151 77 166 74 981
l-3 693 -137 3 -137 3 -3 -733 c-3 -674 -5 -737 -21 -778 -30 -76 -77 -139
-135 -181 -111 -79 20 -74 -1703 -72 -1500 2 -1538 3 -1589 22 -98 37 -181
120 -223 223 l-22 53 0 1545 c0 1454 1 1548 18 1595 35 100 126 192 227 232
41 16 107 18 783 21 l738 3 -3 137 -3 137 -720 1 c-396 1 -745 -2 -775 -7z"/>
<path d="M3187 4333 c-4 -3 -7 -66 -7 -138 l0 -132 107 -6 c58 -4 222 -7 365
-7 142 0 258 -4 258 -9 0 -8 -244 -254 -1264 -1278 l-441 -443 97 -97 97 -97
854 852 c470 469 860 852 866 852 8 0 11 -97 11 -349 0 -192 3 -356 6 -365 5
-13 26 -16 129 -16 68 0 130 3 139 6 14 6 16 68 16 608 0 455 -3 605 -12 614
-9 9 -159 12 -613 12 -331 0 -605 -3 -608 -7z"/>
</g>
</svg>
