<?xml version="1.0" standalone="no"?>
<!DOCTYPE svg PUBLIC "-//W3C//DTD SVG 20010904//EN"
 "http://www.w3.org/TR/2001/REC-SVG-20010904/DTD/svg10.dtd">
<svg version="1.0" xmlns="http://www.w3.org/2000/svg"
 width="273.000000pt" height="256.000000pt" viewBox="0 0 273.000000 256.000000"
 preserveAspectRatio="xMidYMid meet">

<g transform="translate(0.000000,256.000000) scale(0.100000,-0.100000)"
fill="#000000" stroke="none">
<path d="M1235 2459 c-288 -32 -522 -144 -726 -348 -220 -221 -325 -461 -336
-771 -10 -292 66 -538 238 -760 149 -193 336 -326 569 -403 141 -47 229 -60
390 -59 371 1 684 149 923 434 94 113 152 215 199 353 173 508 -9 1059 -447
1351 -203 135 -388 196 -625 207 -58 3 -141 1 -185 -4z m292 -456 c73 -34 113
-144 78 -217 -53 -112 -190 -139 -273 -53 -80 83 -68 200 27 264 41 28 117 31
168 6z m-3 -423 c14 -5 26 -16 26 -24 0 -7 -22 -92 -49 -187 -181 -645 -175
-615 -131 -639 15 -8 31 -5 72 15 141 68 188 48 109 -48 -90 -109 -155 -143
-254 -134 -113 10 -187 92 -187 207 0 60 10 105 94 411 31 114 56 216 56 227
0 28 -19 40 -70 44 l-45 3 -3 48 c-2 26 1 47 5 48 4 0 69 9 143 18 164 22 201
24 234 11z"/>
</g>
</svg>
