<?xml version="1.0" standalone="no"?>
<!DOCTYPE svg PUBLIC "-//W3C//DTD SVG 20010904//EN"
 "http://www.w3.org/TR/2001/REC-SVG-20010904/DTD/svg10.dtd">
<svg version="1.0" xmlns="http://www.w3.org/2000/svg"
 width="520.000000pt" height="480.000000pt" viewBox="0 0 520.000000 480.000000"
 preserveAspectRatio="xMidYMid meet">

<g transform="translate(0.000000,480.000000) scale(0.100000,-0.100000)"
fill="#000000" stroke="none">
<path d="M2390 4644 c-531 -48 -1013 -272 -1392 -646 -472 -465 -716 -1128
-658 -1788 33 -372 146 -702 353 -1025 90 -142 160 -232 264 -338 343 -354
775 -583 1258 -668 109 -19 167 -22 365 -23 229 0 295 5 465 39 513 103 1017
419 1326 830 318 425 469 868 469 1379 0 247 -19 378 -92 635 -229 808 -930
1434 -1768 1581 -95 17 -175 22 -335 25 -115 1 -230 1 -255 -1z m376 -309
c271 -14 616 -131 862 -291 478 -311 783 -772 884 -1334 20 -115 17 -529 -5
-647 -57 -301 -187 -596 -370 -838 -87 -115 -275 -300 -394 -388 -262 -194
-574 -321 -887 -363 -142 -18 -421 -18 -556 1 -703 100 -1329 622 -1554 1296
-123 368 -135 806 -31 1164 71 244 203 493 371 701 329 407 836 668 1364 703
102 7 127 7 316 -4z"/>
<path d="M2664 3750 c-71 -28 -137 -89 -171 -158 -36 -74 -39 -181 -6 -253 51
-113 149 -179 273 -187 178 -10 313 107 328 284 10 128 -65 254 -180 304 -75
33 -177 37 -244 10z"/>
<path d="M2800 2844 c-458 -50 -656 -76 -677 -90 -25 -16 -31 -62 -11 -82 8
-8 48 -12 115 -12 120 0 143 -12 143 -77 0 -36 -85 -377 -181 -729 -101 -372
-118 -490 -86 -595 33 -109 119 -185 241 -216 234 -57 545 129 682 409 34 69
27 111 -18 116 -22 3 -39 -9 -90 -59 -108 -107 -223 -140 -288 -81 -50 44 -49
81 5 267 62 217 114 410 176 655 28 113 64 252 80 309 30 108 35 147 21 169
-10 14 -60 22 -112 16z"/>
</g>
</svg>
