<?xml version="1.0" standalone="no"?>
<!DOCTYPE svg PUBLIC "-//W3C//DTD SVG 20010904//EN"
 "http://www.w3.org/TR/2001/REC-SVG-20010904/DTD/svg10.dtd">
<svg version="1.0" xmlns="http://www.w3.org/2000/svg"
 width="500.000000pt" height="500.000000pt" viewBox="0 0 500.000000 500.000000"
 preserveAspectRatio="xMidYMid meet">

<g transform="translate(0.000000,500.000000) scale(0.100000,-0.100000)"
fill="#000000" stroke="none">
<path d="M2260 4624 c-340 -40 -671 -161 -950 -349 -522 -352 -855 -898 -931
-1530 -15 -125 -15 -381 0 -500 39 -314 152 -628 319 -889 110 -173 283 -368
442 -501 217 -181 516 -337 785 -410 809 -221 1675 48 2206 683 325 390 484
808 496 1310 9 333 -39 598 -158 885 -274 656 -843 1124 -1549 1272 -112 24
-151 27 -375 30 -137 2 -266 1 -285 -1z m18 -1117 c9 -6 12 -219 12 -1007 0
-788 -3 -1000 -12 -1007 -7 -4 -130 -6 -273 -5 -230 2 -261 4 -272 19 -10 13
-13 228 -13 993 0 766 3 980 13 992 6 9 23 19 37 21 41 8 494 3 508 -6z m984
-5 c17 -17 25 -1961 8 -1993 -10 -19 -21 -19 -283 -17 l-272 3 0 1005 0 1005
30 7 c17 3 137 6 267 5 179 -2 240 -5 250 -15z"/>
</g>
</svg>
