<?xml version="1.0" standalone="no"?>
<!DOCTYPE svg PUBLIC "-//W3C//DTD SVG 20010904//EN"
 "http://www.w3.org/TR/2001/REC-SVG-20010904/DTD/svg10.dtd">
<svg version="1.0" xmlns="http://www.w3.org/2000/svg"
 width="500.000000pt" height="500.000000pt" viewBox="0 0 500.000000 500.000000"
 preserveAspectRatio="xMidYMid meet">

<g transform="translate(0.000000,500.000000) scale(0.100000,-0.100000)"
fill="#000000" stroke="none">
<path d="M2286 4389 c-635 -67 -1205 -466 -1489 -1044 -64 -128 -89 -197 -126
-337 -54 -205 -65 -286 -65 -503 -1 -281 33 -463 129 -706 234 -588 750 -1024
1365 -1153 501 -106 1015 -9 1445 271 279 183 529 469 668 763 339 721 207
1560 -336 2127 -321 336 -725 536 -1177 583 -111 11 -301 11 -414 -1z m88
-1225 c259 -141 530 -289 601 -329 72 -40 211 -116 310 -170 246 -134 257
-142 253 -168 -2 -12 -12 -26 -23 -32 -27 -13 -181 -98 -350 -190 -22 -12 -65
-36 -95 -52 -30 -17 -149 -82 -265 -145 -389 -214 -610 -335 -680 -373 -38
-21 -105 -58 -149 -82 -43 -23 -84 -43 -90 -43 -36 0 -36 6 -36 920 0 924 0
920 38 920 8 0 227 -115 486 -256z"/>
</g>
</svg>
